<mxfile host="app.diagrams.net" modified="2023-04-10T21:08:39.465Z" agent="Mozilla/5.0 (Windows NT 10.0; Win64; x64) AppleWebKit/537.36 (KHTML, like Gecko) Chrome/110.0.0.0 Safari/537.36 OPR/96.0.0.0" etag="9a-cSQR0Myw6G6OuVMfI" version="21.1.5" type="github">
  <diagram id="R2lEEEUBdFMjLlhIrx00" name="Page-1">
    <mxGraphModel dx="961" dy="584" grid="1" gridSize="10" guides="1" tooltips="1" connect="1" arrows="1" fold="1" page="1" pageScale="1" pageWidth="850" pageHeight="1100" math="0" shadow="0" extFonts="Permanent Marker^https://fonts.googleapis.com/css?family=Permanent+Marker">
      <root>
        <mxCell id="0" />
        <mxCell id="1" parent="0" />
        <mxCell id="ipvh3O1CE93SR9LDaiga-25" style="rounded=0;orthogonalLoop=1;jettySize=auto;html=1;exitX=0;exitY=0;exitDx=0;exitDy=0;entryX=0.5;entryY=1;entryDx=0;entryDy=0;" edge="1" parent="1" source="ipvh3O1CE93SR9LDaiga-15" target="ipvh3O1CE93SR9LDaiga-20">
          <mxGeometry relative="1" as="geometry" />
        </mxCell>
        <mxCell id="ipvh3O1CE93SR9LDaiga-26" style="rounded=0;orthogonalLoop=1;jettySize=auto;html=1;exitX=0.5;exitY=0;exitDx=0;exitDy=0;entryX=0.5;entryY=1;entryDx=0;entryDy=0;" edge="1" parent="1" source="ipvh3O1CE93SR9LDaiga-15" target="ipvh3O1CE93SR9LDaiga-18">
          <mxGeometry relative="1" as="geometry" />
        </mxCell>
        <mxCell id="ipvh3O1CE93SR9LDaiga-27" style="rounded=0;orthogonalLoop=1;jettySize=auto;html=1;exitX=1;exitY=0;exitDx=0;exitDy=0;entryX=0.5;entryY=1;entryDx=0;entryDy=0;" edge="1" parent="1" source="ipvh3O1CE93SR9LDaiga-15" target="ipvh3O1CE93SR9LDaiga-19">
          <mxGeometry relative="1" as="geometry" />
        </mxCell>
        <mxCell id="ipvh3O1CE93SR9LDaiga-15" value="Schiff" style="whiteSpace=wrap;html=1;align=center;" vertex="1" parent="1">
          <mxGeometry x="340" y="90" width="100" height="40" as="geometry" />
        </mxCell>
        <mxCell id="ipvh3O1CE93SR9LDaiga-28" style="edgeStyle=orthogonalEdgeStyle;rounded=0;orthogonalLoop=1;jettySize=auto;html=1;exitX=0.5;exitY=0;exitDx=0;exitDy=0;entryX=0.5;entryY=1;entryDx=0;entryDy=0;" edge="1" parent="1" source="ipvh3O1CE93SR9LDaiga-16" target="ipvh3O1CE93SR9LDaiga-21">
          <mxGeometry relative="1" as="geometry" />
        </mxCell>
        <mxCell id="ipvh3O1CE93SR9LDaiga-29" style="edgeStyle=orthogonalEdgeStyle;rounded=0;orthogonalLoop=1;jettySize=auto;html=1;exitX=0;exitY=0.5;exitDx=0;exitDy=0;entryX=1;entryY=0.5;entryDx=0;entryDy=0;" edge="1" parent="1" source="ipvh3O1CE93SR9LDaiga-16" target="ipvh3O1CE93SR9LDaiga-22">
          <mxGeometry relative="1" as="geometry" />
        </mxCell>
        <mxCell id="ipvh3O1CE93SR9LDaiga-106" style="edgeStyle=orthogonalEdgeStyle;rounded=0;orthogonalLoop=1;jettySize=auto;html=1;exitX=1;exitY=0.5;exitDx=0;exitDy=0;dashed=1;" edge="1" parent="1" source="ipvh3O1CE93SR9LDaiga-16" target="ipvh3O1CE93SR9LDaiga-15">
          <mxGeometry relative="1" as="geometry" />
        </mxCell>
        <mxCell id="ipvh3O1CE93SR9LDaiga-16" value="Geisterschiff" style="whiteSpace=wrap;html=1;align=center;dashed=1;" vertex="1" parent="1">
          <mxGeometry x="120" y="90" width="100" height="40" as="geometry" />
        </mxCell>
        <mxCell id="ipvh3O1CE93SR9LDaiga-18" value="SEGEL" style="ellipse;whiteSpace=wrap;html=1;align=center;" vertex="1" parent="1">
          <mxGeometry x="325" y="10" width="100" height="40" as="geometry" />
        </mxCell>
        <mxCell id="ipvh3O1CE93SR9LDaiga-19" value="NAME" style="ellipse;whiteSpace=wrap;html=1;align=center;fontStyle=4;" vertex="1" parent="1">
          <mxGeometry x="430" y="10" width="100" height="40" as="geometry" />
        </mxCell>
        <mxCell id="ipvh3O1CE93SR9LDaiga-20" value="TIEFE" style="ellipse;whiteSpace=wrap;html=1;align=center;" vertex="1" parent="1">
          <mxGeometry x="220" y="10" width="100" height="40" as="geometry" />
        </mxCell>
        <mxCell id="ipvh3O1CE93SR9LDaiga-21" value="GEISTER" style="ellipse;whiteSpace=wrap;html=1;align=center;" vertex="1" parent="1">
          <mxGeometry x="90" y="30" width="100" height="40" as="geometry" />
        </mxCell>
        <mxCell id="ipvh3O1CE93SR9LDaiga-22" value="&lt;font style=&quot;font-size: 10px;&quot;&gt;GEISTERSTUNDE&lt;/font&gt;" style="ellipse;whiteSpace=wrap;html=1;align=center;" vertex="1" parent="1">
          <mxGeometry y="90" width="100" height="40" as="geometry" />
        </mxCell>
        <mxCell id="ipvh3O1CE93SR9LDaiga-39" style="rounded=0;orthogonalLoop=1;jettySize=auto;html=1;exitX=0.75;exitY=1;exitDx=0;exitDy=0;entryX=0;entryY=0.5;entryDx=0;entryDy=0;" edge="1" parent="1" source="ipvh3O1CE93SR9LDaiga-31" target="ipvh3O1CE93SR9LDaiga-38">
          <mxGeometry relative="1" as="geometry" />
        </mxCell>
        <mxCell id="ipvh3O1CE93SR9LDaiga-40" style="rounded=0;orthogonalLoop=1;jettySize=auto;html=1;exitX=1;exitY=0.5;exitDx=0;exitDy=0;entryX=0;entryY=0.5;entryDx=0;entryDy=0;" edge="1" parent="1" source="ipvh3O1CE93SR9LDaiga-31" target="ipvh3O1CE93SR9LDaiga-35">
          <mxGeometry relative="1" as="geometry" />
        </mxCell>
        <mxCell id="ipvh3O1CE93SR9LDaiga-41" style="rounded=0;orthogonalLoop=1;jettySize=auto;html=1;exitX=1;exitY=0;exitDx=0;exitDy=0;entryX=0;entryY=1;entryDx=0;entryDy=0;" edge="1" parent="1" source="ipvh3O1CE93SR9LDaiga-31" target="ipvh3O1CE93SR9LDaiga-36">
          <mxGeometry relative="1" as="geometry" />
        </mxCell>
        <mxCell id="ipvh3O1CE93SR9LDaiga-42" style="rounded=0;orthogonalLoop=1;jettySize=auto;html=1;exitX=0.5;exitY=0;exitDx=0;exitDy=0;entryX=0.5;entryY=1;entryDx=0;entryDy=0;" edge="1" parent="1" source="ipvh3O1CE93SR9LDaiga-31" target="ipvh3O1CE93SR9LDaiga-37">
          <mxGeometry relative="1" as="geometry" />
        </mxCell>
        <mxCell id="ipvh3O1CE93SR9LDaiga-31" value="Papagei" style="shape=ext;margin=3;double=1;whiteSpace=wrap;html=1;align=center;" vertex="1" parent="1">
          <mxGeometry x="560" y="90" width="100" height="40" as="geometry" />
        </mxCell>
        <mxCell id="ipvh3O1CE93SR9LDaiga-32" value="" style="shape=link;html=1;rounded=0;exitX=1;exitY=0.5;exitDx=0;exitDy=0;entryX=0;entryY=0.5;entryDx=0;entryDy=0;" edge="1" parent="1" source="ipvh3O1CE93SR9LDaiga-15" target="ipvh3O1CE93SR9LDaiga-31">
          <mxGeometry relative="1" as="geometry">
            <mxPoint x="450" y="150" as="sourcePoint" />
            <mxPoint x="610" y="150" as="targetPoint" />
          </mxGeometry>
        </mxCell>
        <mxCell id="ipvh3O1CE93SR9LDaiga-33" value="1" style="resizable=0;html=1;whiteSpace=wrap;align=left;verticalAlign=bottom;" connectable="0" vertex="1" parent="ipvh3O1CE93SR9LDaiga-32">
          <mxGeometry x="-1" relative="1" as="geometry" />
        </mxCell>
        <mxCell id="ipvh3O1CE93SR9LDaiga-34" value="N" style="resizable=0;html=1;whiteSpace=wrap;align=right;verticalAlign=bottom;" connectable="0" vertex="1" parent="ipvh3O1CE93SR9LDaiga-32">
          <mxGeometry x="1" relative="1" as="geometry" />
        </mxCell>
        <mxCell id="ipvh3O1CE93SR9LDaiga-35" value="FARBE" style="ellipse;whiteSpace=wrap;html=1;align=center;" vertex="1" parent="1">
          <mxGeometry x="690" y="90" width="100" height="40" as="geometry" />
        </mxCell>
        <mxCell id="ipvh3O1CE93SR9LDaiga-36" value="NAME" style="ellipse;whiteSpace=wrap;html=1;align=center;fontStyle=4;" vertex="1" parent="1">
          <mxGeometry x="670" y="30" width="100" height="40" as="geometry" />
        </mxCell>
        <mxCell id="ipvh3O1CE93SR9LDaiga-37" value="&lt;u&gt;SCHIFF_NAME&lt;/u&gt;" style="ellipse;whiteSpace=wrap;html=1;align=center;dashed=1;" vertex="1" parent="1">
          <mxGeometry x="560" y="10" width="100" height="40" as="geometry" />
        </mxCell>
        <mxCell id="ipvh3O1CE93SR9LDaiga-38" value="WOERTER" style="ellipse;whiteSpace=wrap;html=1;align=center;" vertex="1" parent="1">
          <mxGeometry x="690" y="150" width="100" height="40" as="geometry" />
        </mxCell>
        <mxCell id="ipvh3O1CE93SR9LDaiga-71" style="rounded=0;orthogonalLoop=1;jettySize=auto;html=1;exitX=1;exitY=0.5;exitDx=0;exitDy=0;entryX=0;entryY=0.5;entryDx=0;entryDy=0;" edge="1" parent="1" source="ipvh3O1CE93SR9LDaiga-43" target="ipvh3O1CE93SR9LDaiga-45">
          <mxGeometry relative="1" as="geometry" />
        </mxCell>
        <mxCell id="ipvh3O1CE93SR9LDaiga-72" style="rounded=0;orthogonalLoop=1;jettySize=auto;html=1;exitX=1;exitY=0.5;exitDx=0;exitDy=0;" edge="1" parent="1" source="ipvh3O1CE93SR9LDaiga-43" target="ipvh3O1CE93SR9LDaiga-44">
          <mxGeometry relative="1" as="geometry" />
        </mxCell>
        <mxCell id="ipvh3O1CE93SR9LDaiga-73" style="rounded=0;orthogonalLoop=1;jettySize=auto;html=1;exitX=1;exitY=0.5;exitDx=0;exitDy=0;entryX=0;entryY=0.5;entryDx=0;entryDy=0;" edge="1" parent="1" source="ipvh3O1CE93SR9LDaiga-43" target="ipvh3O1CE93SR9LDaiga-54">
          <mxGeometry relative="1" as="geometry" />
        </mxCell>
        <mxCell id="ipvh3O1CE93SR9LDaiga-82" style="rounded=0;orthogonalLoop=1;jettySize=auto;html=1;exitX=1;exitY=0.5;exitDx=0;exitDy=0;entryX=0;entryY=0.5;entryDx=0;entryDy=0;" edge="1" parent="1" source="ipvh3O1CE93SR9LDaiga-43" target="ipvh3O1CE93SR9LDaiga-46">
          <mxGeometry relative="1" as="geometry" />
        </mxCell>
        <mxCell id="ipvh3O1CE93SR9LDaiga-43" value="Pirat:innen" style="whiteSpace=wrap;html=1;align=center;" vertex="1" parent="1">
          <mxGeometry x="455" y="367.5" width="100" height="40" as="geometry" />
        </mxCell>
        <mxCell id="ipvh3O1CE93SR9LDaiga-44" value="NAME" style="ellipse;whiteSpace=wrap;html=1;align=center;" vertex="1" parent="1">
          <mxGeometry x="670" y="397.5" width="100" height="40" as="geometry" />
        </mxCell>
        <mxCell id="ipvh3O1CE93SR9LDaiga-45" value="&lt;u&gt;GEBDAT&lt;/u&gt;" style="ellipse;whiteSpace=wrap;html=1;align=center;" vertex="1" parent="1">
          <mxGeometry x="660" y="347.5" width="100" height="40" as="geometry" />
        </mxCell>
        <mxCell id="ipvh3O1CE93SR9LDaiga-46" value="&lt;u&gt;LAND&lt;/u&gt;" style="ellipse;whiteSpace=wrap;html=1;align=center;" vertex="1" parent="1">
          <mxGeometry x="640" y="297.5" width="100" height="40" as="geometry" />
        </mxCell>
        <mxCell id="ipvh3O1CE93SR9LDaiga-47" value="pflegt" style="shape=rhombus;perimeter=rhombusPerimeter;whiteSpace=wrap;html=1;align=center;" vertex="1" parent="1">
          <mxGeometry x="495" y="257.5" width="120" height="60" as="geometry" />
        </mxCell>
        <mxCell id="ipvh3O1CE93SR9LDaiga-48" value="" style="endArrow=none;html=1;rounded=0;exitX=0.5;exitY=1;exitDx=0;exitDy=0;entryX=0.5;entryY=0;entryDx=0;entryDy=0;" edge="1" parent="1" source="ipvh3O1CE93SR9LDaiga-47" target="ipvh3O1CE93SR9LDaiga-43">
          <mxGeometry relative="1" as="geometry">
            <mxPoint x="515" y="327.5" as="sourcePoint" />
            <mxPoint x="675" y="327.5" as="targetPoint" />
          </mxGeometry>
        </mxCell>
        <mxCell id="ipvh3O1CE93SR9LDaiga-49" value="" style="resizable=0;html=1;whiteSpace=wrap;align=left;verticalAlign=bottom;" connectable="0" vertex="1" parent="ipvh3O1CE93SR9LDaiga-48">
          <mxGeometry x="-1" relative="1" as="geometry" />
        </mxCell>
        <mxCell id="ipvh3O1CE93SR9LDaiga-50" value="N" style="resizable=0;html=1;whiteSpace=wrap;align=right;verticalAlign=bottom;" connectable="0" vertex="1" parent="ipvh3O1CE93SR9LDaiga-48">
          <mxGeometry x="1" relative="1" as="geometry" />
        </mxCell>
        <mxCell id="ipvh3O1CE93SR9LDaiga-51" value="" style="endArrow=none;html=1;rounded=0;exitX=0.5;exitY=1;exitDx=0;exitDy=0;entryX=0.5;entryY=0;entryDx=0;entryDy=0;" edge="1" parent="1" source="ipvh3O1CE93SR9LDaiga-31" target="ipvh3O1CE93SR9LDaiga-47">
          <mxGeometry relative="1" as="geometry">
            <mxPoint x="570" y="240" as="sourcePoint" />
            <mxPoint x="570" y="290" as="targetPoint" />
          </mxGeometry>
        </mxCell>
        <mxCell id="ipvh3O1CE93SR9LDaiga-52" value="M" style="resizable=0;html=1;whiteSpace=wrap;align=left;verticalAlign=bottom;" connectable="0" vertex="1" parent="ipvh3O1CE93SR9LDaiga-51">
          <mxGeometry x="-1" relative="1" as="geometry" />
        </mxCell>
        <mxCell id="ipvh3O1CE93SR9LDaiga-53" value="" style="resizable=0;html=1;whiteSpace=wrap;align=right;verticalAlign=bottom;" connectable="0" vertex="1" parent="ipvh3O1CE93SR9LDaiga-51">
          <mxGeometry x="1" relative="1" as="geometry" />
        </mxCell>
        <mxCell id="ipvh3O1CE93SR9LDaiga-54" value="STREIT" style="ellipse;whiteSpace=wrap;html=1;align=center;" vertex="1" parent="1">
          <mxGeometry x="640" y="447.5" width="100" height="40" as="geometry" />
        </mxCell>
        <mxCell id="ipvh3O1CE93SR9LDaiga-58" value="TITEL" style="ellipse;whiteSpace=wrap;html=1;align=center;fontStyle=4;" vertex="1" parent="1">
          <mxGeometry x="65" y="377.5" width="100" height="40" as="geometry" />
        </mxCell>
        <mxCell id="ipvh3O1CE93SR9LDaiga-59" value="ABZEICHEN" style="ellipse;whiteSpace=wrap;html=1;align=center;fontStyle=4;" vertex="1" parent="1">
          <mxGeometry x="25" y="427.5" width="100" height="40" as="geometry" />
        </mxCell>
        <mxCell id="ipvh3O1CE93SR9LDaiga-60" value="&lt;font style=&quot;font-size: 7px;&quot;&gt;AUFGABENBESCHREIBUNG&lt;/font&gt;" style="ellipse;whiteSpace=wrap;html=1;align=center;" vertex="1" parent="1">
          <mxGeometry x="65" y="477.5" width="100" height="40" as="geometry" />
        </mxCell>
        <mxCell id="ipvh3O1CE93SR9LDaiga-100" style="rounded=0;orthogonalLoop=1;jettySize=auto;html=1;exitX=0;exitY=0.5;exitDx=0;exitDy=0;entryX=1;entryY=0.5;entryDx=0;entryDy=0;" edge="1" parent="1" source="ipvh3O1CE93SR9LDaiga-61" target="ipvh3O1CE93SR9LDaiga-63">
          <mxGeometry relative="1" as="geometry" />
        </mxCell>
        <mxCell id="ipvh3O1CE93SR9LDaiga-101" style="rounded=0;orthogonalLoop=1;jettySize=auto;html=1;exitX=0;exitY=0.5;exitDx=0;exitDy=0;entryX=1;entryY=0.5;entryDx=0;entryDy=0;" edge="1" parent="1" source="ipvh3O1CE93SR9LDaiga-61" target="ipvh3O1CE93SR9LDaiga-62">
          <mxGeometry relative="1" as="geometry" />
        </mxCell>
        <mxCell id="ipvh3O1CE93SR9LDaiga-61" value="Rumsorte" style="whiteSpace=wrap;html=1;align=center;" vertex="1" parent="1">
          <mxGeometry x="165" y="210" width="100" height="40" as="geometry" />
        </mxCell>
        <mxCell id="ipvh3O1CE93SR9LDaiga-62" value="JAHR" style="ellipse;whiteSpace=wrap;html=1;align=center;fontStyle=4;" vertex="1" parent="1">
          <mxGeometry x="15" y="307.5" width="100" height="40" as="geometry" />
        </mxCell>
        <mxCell id="ipvh3O1CE93SR9LDaiga-63" value="QUELLE" style="ellipse;whiteSpace=wrap;html=1;align=center;fontStyle=4;" vertex="1" parent="1">
          <mxGeometry x="15" y="257.5" width="100" height="40" as="geometry" />
        </mxCell>
        <mxCell id="ipvh3O1CE93SR9LDaiga-94" style="rounded=0;orthogonalLoop=1;jettySize=auto;html=1;exitX=0;exitY=0;exitDx=0;exitDy=0;entryX=1;entryY=1;entryDx=0;entryDy=0;" edge="1" parent="1" source="ipvh3O1CE93SR9LDaiga-64" target="ipvh3O1CE93SR9LDaiga-58">
          <mxGeometry relative="1" as="geometry" />
        </mxCell>
        <mxCell id="ipvh3O1CE93SR9LDaiga-95" style="rounded=0;orthogonalLoop=1;jettySize=auto;html=1;exitX=0;exitY=0.5;exitDx=0;exitDy=0;entryX=1;entryY=0.5;entryDx=0;entryDy=0;" edge="1" parent="1" source="ipvh3O1CE93SR9LDaiga-64" target="ipvh3O1CE93SR9LDaiga-59">
          <mxGeometry relative="1" as="geometry" />
        </mxCell>
        <mxCell id="ipvh3O1CE93SR9LDaiga-96" style="rounded=0;orthogonalLoop=1;jettySize=auto;html=1;exitX=0;exitY=1;exitDx=0;exitDy=0;entryX=1;entryY=0;entryDx=0;entryDy=0;" edge="1" parent="1" source="ipvh3O1CE93SR9LDaiga-64" target="ipvh3O1CE93SR9LDaiga-60">
          <mxGeometry relative="1" as="geometry" />
        </mxCell>
        <mxCell id="ipvh3O1CE93SR9LDaiga-64" value="Position" style="whiteSpace=wrap;html=1;align=center;" vertex="1" parent="1">
          <mxGeometry x="165" y="427.5" width="100" height="40" as="geometry" />
        </mxCell>
        <mxCell id="ipvh3O1CE93SR9LDaiga-66" value="nimmt ein" style="shape=rhombus;perimeter=rhombusPerimeter;whiteSpace=wrap;html=1;align=center;" vertex="1" parent="1">
          <mxGeometry x="360" y="237.5" width="120" height="60" as="geometry" />
        </mxCell>
        <mxCell id="ipvh3O1CE93SR9LDaiga-75" value="" style="endArrow=none;html=1;rounded=0;entryX=0.5;entryY=0;entryDx=0;entryDy=0;exitX=0.5;exitY=1;exitDx=0;exitDy=0;" edge="1" parent="1" source="ipvh3O1CE93SR9LDaiga-15" target="ipvh3O1CE93SR9LDaiga-66">
          <mxGeometry relative="1" as="geometry">
            <mxPoint x="350" y="150" as="sourcePoint" />
            <mxPoint x="510" y="150" as="targetPoint" />
          </mxGeometry>
        </mxCell>
        <mxCell id="ipvh3O1CE93SR9LDaiga-76" value="1" style="resizable=0;html=1;whiteSpace=wrap;align=right;verticalAlign=bottom;" connectable="0" vertex="1" parent="ipvh3O1CE93SR9LDaiga-75">
          <mxGeometry x="1" relative="1" as="geometry">
            <mxPoint x="10" y="-8" as="offset" />
          </mxGeometry>
        </mxCell>
        <mxCell id="ipvh3O1CE93SR9LDaiga-77" value="" style="endArrow=none;html=1;rounded=0;exitX=1;exitY=0.5;exitDx=0;exitDy=0;entryX=0;entryY=0.5;entryDx=0;entryDy=0;" edge="1" parent="1" source="ipvh3O1CE93SR9LDaiga-64" target="ipvh3O1CE93SR9LDaiga-66">
          <mxGeometry relative="1" as="geometry">
            <mxPoint x="315" y="337.5" as="sourcePoint" />
            <mxPoint x="475" y="337.5" as="targetPoint" />
            <Array as="points">
              <mxPoint x="360" y="447.5" />
            </Array>
          </mxGeometry>
        </mxCell>
        <mxCell id="ipvh3O1CE93SR9LDaiga-78" value="1" style="resizable=0;html=1;whiteSpace=wrap;align=right;verticalAlign=bottom;" connectable="0" vertex="1" parent="ipvh3O1CE93SR9LDaiga-77">
          <mxGeometry x="1" relative="1" as="geometry">
            <mxPoint x="15" y="30" as="offset" />
          </mxGeometry>
        </mxCell>
        <mxCell id="ipvh3O1CE93SR9LDaiga-79" value="" style="endArrow=none;html=1;rounded=0;exitX=0.5;exitY=1;exitDx=0;exitDy=0;entryX=0;entryY=0;entryDx=0;entryDy=0;" edge="1" parent="1" source="ipvh3O1CE93SR9LDaiga-66" target="ipvh3O1CE93SR9LDaiga-43">
          <mxGeometry relative="1" as="geometry">
            <mxPoint x="415" y="317.5" as="sourcePoint" />
            <mxPoint x="575" y="317.5" as="targetPoint" />
          </mxGeometry>
        </mxCell>
        <mxCell id="ipvh3O1CE93SR9LDaiga-81" value="1" style="resizable=0;html=1;whiteSpace=wrap;align=right;verticalAlign=bottom;" connectable="0" vertex="1" parent="ipvh3O1CE93SR9LDaiga-79">
          <mxGeometry x="1" relative="1" as="geometry">
            <mxPoint x="-15" y="-60" as="offset" />
          </mxGeometry>
        </mxCell>
        <mxCell id="ipvh3O1CE93SR9LDaiga-104" style="rounded=0;orthogonalLoop=1;jettySize=auto;html=1;exitX=1;exitY=0.5;exitDx=0;exitDy=0;entryX=0.5;entryY=0;entryDx=0;entryDy=0;" edge="1" parent="1" source="ipvh3O1CE93SR9LDaiga-83" target="ipvh3O1CE93SR9LDaiga-103">
          <mxGeometry relative="1" as="geometry" />
        </mxCell>
        <mxCell id="ipvh3O1CE93SR9LDaiga-83" value="bekommt" style="shape=rhombus;perimeter=rhombusPerimeter;whiteSpace=wrap;html=1;align=center;" vertex="1" parent="1">
          <mxGeometry x="155" y="297.5" width="120" height="60" as="geometry" />
        </mxCell>
        <mxCell id="ipvh3O1CE93SR9LDaiga-85" value="" style="endArrow=none;html=1;rounded=0;exitX=0.5;exitY=0;exitDx=0;exitDy=0;entryX=0.5;entryY=1;entryDx=0;entryDy=0;" edge="1" parent="1" source="ipvh3O1CE93SR9LDaiga-64" target="ipvh3O1CE93SR9LDaiga-83">
          <mxGeometry relative="1" as="geometry">
            <mxPoint x="255" y="442.5" as="sourcePoint" />
            <mxPoint x="215" y="387.5" as="targetPoint" />
          </mxGeometry>
        </mxCell>
        <mxCell id="ipvh3O1CE93SR9LDaiga-86" value="M" style="resizable=0;html=1;whiteSpace=wrap;align=left;verticalAlign=bottom;" connectable="0" vertex="1" parent="ipvh3O1CE93SR9LDaiga-85">
          <mxGeometry x="-1" relative="1" as="geometry">
            <mxPoint as="offset" />
          </mxGeometry>
        </mxCell>
        <mxCell id="ipvh3O1CE93SR9LDaiga-88" value="" style="endArrow=none;html=1;rounded=0;entryX=0.5;entryY=1;entryDx=0;entryDy=0;exitX=0.5;exitY=0;exitDx=0;exitDy=0;" edge="1" parent="1" source="ipvh3O1CE93SR9LDaiga-83" target="ipvh3O1CE93SR9LDaiga-61">
          <mxGeometry relative="1" as="geometry">
            <mxPoint x="245" y="287.5" as="sourcePoint" />
            <mxPoint x="245" y="267.5" as="targetPoint" />
          </mxGeometry>
        </mxCell>
        <mxCell id="ipvh3O1CE93SR9LDaiga-90" value="N" style="resizable=0;html=1;whiteSpace=wrap;align=right;verticalAlign=bottom;" connectable="0" vertex="1" parent="ipvh3O1CE93SR9LDaiga-88">
          <mxGeometry x="1" relative="1" as="geometry">
            <mxPoint y="17" as="offset" />
          </mxGeometry>
        </mxCell>
        <mxCell id="ipvh3O1CE93SR9LDaiga-103" value="MENGE" style="ellipse;whiteSpace=wrap;html=1;align=center;" vertex="1" parent="1">
          <mxGeometry x="245" y="347.5" width="100" height="40" as="geometry" />
        </mxCell>
        <mxCell id="ipvh3O1CE93SR9LDaiga-105" value="MENGE" style="ellipse;whiteSpace=wrap;html=1;align=center;" vertex="1" parent="1">
          <mxGeometry x="110" y="150" width="100" height="40" as="geometry" />
        </mxCell>
        <mxCell id="ipvh3O1CE93SR9LDaiga-113" style="edgeStyle=orthogonalEdgeStyle;rounded=0;orthogonalLoop=1;jettySize=auto;html=1;exitX=0;exitY=0.5;exitDx=0;exitDy=0;" edge="1" parent="1" source="ipvh3O1CE93SR9LDaiga-107" target="ipvh3O1CE93SR9LDaiga-105">
          <mxGeometry relative="1" as="geometry" />
        </mxCell>
        <mxCell id="ipvh3O1CE93SR9LDaiga-107" value="führt mit" style="shape=rhombus;perimeter=rhombusPerimeter;whiteSpace=wrap;html=1;align=center;" vertex="1" parent="1">
          <mxGeometry x="245" y="140" width="120" height="60" as="geometry" />
        </mxCell>
        <mxCell id="ipvh3O1CE93SR9LDaiga-108" value="" style="endArrow=none;html=1;rounded=0;exitX=1;exitY=0.5;exitDx=0;exitDy=0;entryX=0.5;entryY=1;entryDx=0;entryDy=0;" edge="1" parent="1" source="ipvh3O1CE93SR9LDaiga-61" target="ipvh3O1CE93SR9LDaiga-107">
          <mxGeometry relative="1" as="geometry">
            <mxPoint x="275" y="229.66" as="sourcePoint" />
            <mxPoint x="435" y="229.66" as="targetPoint" />
          </mxGeometry>
        </mxCell>
        <mxCell id="ipvh3O1CE93SR9LDaiga-109" value="M" style="resizable=0;html=1;whiteSpace=wrap;align=left;verticalAlign=bottom;" connectable="0" vertex="1" parent="ipvh3O1CE93SR9LDaiga-108">
          <mxGeometry x="-1" relative="1" as="geometry">
            <mxPoint x="5" y="10" as="offset" />
          </mxGeometry>
        </mxCell>
        <mxCell id="ipvh3O1CE93SR9LDaiga-111" value="" style="endArrow=none;html=1;rounded=0;exitX=0.25;exitY=1;exitDx=0;exitDy=0;entryX=1;entryY=0.5;entryDx=0;entryDy=0;" edge="1" parent="1" source="ipvh3O1CE93SR9LDaiga-15" target="ipvh3O1CE93SR9LDaiga-107">
          <mxGeometry relative="1" as="geometry">
            <mxPoint x="325" y="220" as="sourcePoint" />
            <mxPoint x="365" y="190" as="targetPoint" />
          </mxGeometry>
        </mxCell>
        <mxCell id="ipvh3O1CE93SR9LDaiga-112" value="N" style="resizable=0;html=1;whiteSpace=wrap;align=left;verticalAlign=bottom;" connectable="0" vertex="1" parent="ipvh3O1CE93SR9LDaiga-111">
          <mxGeometry x="-1" relative="1" as="geometry">
            <mxPoint y="20" as="offset" />
          </mxGeometry>
        </mxCell>
        <mxCell id="ipvh3O1CE93SR9LDaiga-118" style="rounded=0;orthogonalLoop=1;jettySize=auto;html=1;exitX=1;exitY=0.5;exitDx=0;exitDy=0;entryX=0;entryY=0.5;entryDx=0;entryDy=0;" edge="1" parent="1" source="ipvh3O1CE93SR9LDaiga-114" target="ipvh3O1CE93SR9LDaiga-115">
          <mxGeometry relative="1" as="geometry" />
        </mxCell>
        <mxCell id="ipvh3O1CE93SR9LDaiga-119" style="rounded=0;orthogonalLoop=1;jettySize=auto;html=1;exitX=1;exitY=0.5;exitDx=0;exitDy=0;" edge="1" parent="1" source="ipvh3O1CE93SR9LDaiga-114" target="ipvh3O1CE93SR9LDaiga-116">
          <mxGeometry relative="1" as="geometry" />
        </mxCell>
        <mxCell id="ipvh3O1CE93SR9LDaiga-120" style="rounded=0;orthogonalLoop=1;jettySize=auto;html=1;exitX=1;exitY=0.5;exitDx=0;exitDy=0;entryX=0;entryY=0.5;entryDx=0;entryDy=0;" edge="1" parent="1" source="ipvh3O1CE93SR9LDaiga-114" target="ipvh3O1CE93SR9LDaiga-117">
          <mxGeometry relative="1" as="geometry" />
        </mxCell>
        <mxCell id="ipvh3O1CE93SR9LDaiga-114" value="Insel" style="whiteSpace=wrap;html=1;align=center;" vertex="1" parent="1">
          <mxGeometry x="540" y="590" width="100" height="40" as="geometry" />
        </mxCell>
        <mxCell id="ipvh3O1CE93SR9LDaiga-115" value="&lt;u&gt;BEZ&lt;/u&gt;" style="ellipse;whiteSpace=wrap;html=1;align=center;" vertex="1" parent="1">
          <mxGeometry x="690" y="550" width="100" height="40" as="geometry" />
        </mxCell>
        <mxCell id="ipvh3O1CE93SR9LDaiga-116" value="&lt;u&gt;KOORD&lt;/u&gt;" style="ellipse;whiteSpace=wrap;html=1;align=center;" vertex="1" parent="1">
          <mxGeometry x="690" y="600" width="100" height="40" as="geometry" />
        </mxCell>
        <mxCell id="ipvh3O1CE93SR9LDaiga-117" value="M2" style="ellipse;whiteSpace=wrap;html=1;align=center;" vertex="1" parent="1">
          <mxGeometry x="690" y="650" width="100" height="40" as="geometry" />
        </mxCell>
      </root>
    </mxGraphModel>
  </diagram>
</mxfile>
